<?xml version="1.0" encoding="UTF-8" standalone="no"?>
<svg
   width="100%"
   height="100%"
   viewBox="0 0 1187 1187"
   version="1.1"
   xml:space="preserve"
   style="fill-rule:evenodd;clip-rule:evenodd;stroke-linejoin:round;stroke-miterlimit:2;"
   id="svg4"
   sodipodi:docname="DC_Comics_(2024).svg"
   inkscape:version="1.3.2 (091e20e, 2023-11-25, custom)"
   xmlns:inkscape="http://www.inkscape.org/namespaces/inkscape"
   xmlns:sodipodi="http://sodipodi.sourceforge.net/DTD/sodipodi-0.dtd"
   xmlns="http://www.w3.org/2000/svg"
   xmlns:svg="http://www.w3.org/2000/svg"
   xmlns:serif="http://www.serif.com/"><sodipodi:namedview
   id="namedview4"
   pagecolor="#ffffff"
   bordercolor="#000000"
   borderopacity="0.25"
   inkscape:showpageshadow="2"
   inkscape:pageopacity="0.0"
   inkscape:pagecheckerboard="0"
   inkscape:deskcolor="#d1d1d1"
   inkscape:zoom="0.68491997"
   inkscape:cx="593.5"
   inkscape:cy="593.5"
   inkscape:window-width="1920"
   inkscape:window-height="1009"
   inkscape:window-x="-8"
   inkscape:window-y="-8"
   inkscape:window-maximized="1"
   inkscape:current-layer="svg4" />
    <g
   id="Layer-1"
   serif:id="Layer 1"
   transform="matrix(1,0,0,1,313.5,239.25)">
        <g
   transform="matrix(0.989999,0,0,0.989999,-900.214,-239.25)"
   id="g1">
            <circle
   cx="1191.86"
   cy="599.223"
   r="599.223"
   style="fill:#ffffff;fill-opacity:1"
   id="circle1" />
        </g>
        <path
   id="path36-2"
   d="M279.552,-239.25C155.923,-239.329 31.239,-200.945 -75.343,-121.326C-337.699,74.661 -391.559,446.692 -195.572,709.048C0.415,971.404 372.432,1025.27 634.788,829.285C897.144,633.298 951.027,261.272 755.04,-1.084C638.673,-156.858 460.24,-239.134 279.552,-239.25ZM279.566,-233.127C458.365,-233.02 634.921,-151.59 750.106,2.602C944.102,262.293 890.805,630.369 631.113,824.366C371.421,1018.36 3.344,965.064 -190.653,705.372C-384.649,445.681 -331.349,77.604 -71.658,-116.392C33.842,-195.203 157.229,-233.2 279.565,-233.127L279.566,-233.127ZM279.591,-223.809C159.221,-223.873 37.81,-186.463 -66.04,-108.885C-321.671,82.078 -374.096,444.119 -183.132,699.75C7.831,955.381 369.87,1007.81 625.501,816.842C881.132,625.879 933.557,263.839 742.593,8.208C629.209,-143.573 455.513,-223.715 279.59,-223.809L279.591,-223.809ZM-43.64,-87.542L15.889,-47.298L67.309,-85.711L50.442,-21.48L105.589,19.354L37.321,20.836L16.534,85.88L-6.978,21.413L-73.356,19.368L-21.936,-19.043L-43.64,-87.542ZM589.961,3.028L649.489,43.27L700.91,4.858L684.042,69.089L739.189,109.923L670.921,111.406L650.135,176.448L626.623,111.983L560.245,109.938L611.666,71.527L589.961,3.028ZM263.119,10.672C373.319,5.44 484.066,53.261 555.062,148.299C668.655,300.36 637.472,515.718 485.411,629.312C333.35,742.906 117.993,711.721 4.399,559.66C-109.195,407.599 -78.011,192.24 74.05,78.646C131.073,36.049 196.997,13.811 263.118,10.672L263.119,10.672ZM263.589,19.989C199.28,23.051 135.154,44.701 79.655,86.161C-68.345,196.72 -98.643,406.05 11.916,554.05C122.475,702.049 331.791,732.358 479.79,621.798C627.788,511.239 658.111,301.913 547.552,153.914C478.453,61.415 370.768,14.886 263.588,19.989L263.589,19.989ZM263.902,26.107C369.094,21.087 474.765,66.766 542.62,157.6C651.188,302.934 621.438,508.294 476.104,616.863C330.769,725.433 125.421,695.697 16.852,550.362C-91.717,405.028 -61.994,199.663 83.341,91.094C137.842,50.381 200.785,29.119 263.901,26.107L263.902,26.107ZM330.843,63.832L228.698,140.136L215.843,228.923L381.4,450.542L470.185,463.399L571.979,387.356L584.919,297.985L518.239,208.724L422.888,279.954L454.437,322.187L441.14,332.118L345.587,204.207L358.882,194.274L393.001,239.947L488.352,168.716L419.614,76.701L330.843,63.832ZM332.488,70.292L416.219,82.417L479.748,167.458L394.235,231.339L360.114,185.665L336.965,202.957L439.881,340.724L463.029,323.43L431.493,281.215L517.008,217.335L578.475,299.618L566.251,383.946L468.538,456.939L384.807,444.816L222.302,227.278L234.425,143.547L332.488,70.292ZM334.98,80.131L243.146,148.733L232.136,224.775L389.994,436.089L466.035,447.1L557.529,378.752L568.626,302.115L515.102,230.467L444.627,283.113L476.166,325.335L437.99,353.854L323.842,201.053L362.019,172.534L396.14,218.209L466.615,165.563L411.019,91.141L334.98,80.131ZM118.543,222.425L-35.23,337.297L206.255,660.56L360.029,545.687L372.626,458.589L205.625,235.034L118.543,222.425ZM120.188,228.885L202.231,240.75L366.183,460.223L354.301,542.277L207.503,651.939L-26.609,338.546L120.188,228.885ZM122.686,238.718L-13.487,340.444L209.4,638.811L345.575,537.085L356.342,462.734L197.039,249.485L122.686,238.718ZM148.067,332.36L262.214,485.162L225.812,512.354L111.666,359.553L148.067,332.36ZM146.169,345.486L124.801,361.447L227.717,499.214L249.084,483.252L146.169,345.486ZM144.922,354.107L240.476,482.02L228.962,490.622L133.407,362.709L144.922,354.107ZM-144.729,551.568L-85.2,591.809L-33.778,553.396L-50.647,617.628L4.501,658.462L-63.768,659.943L-84.553,724.987L-108.065,660.522L-174.443,658.477L-123.024,620.066L-144.729,551.568ZM499.463,654.47L558.991,694.713L610.412,656.3L593.544,720.532L648.691,761.366L580.423,762.847L559.637,827.89L536.125,763.425L469.747,761.381L521.167,722.971L499.463,654.47Z"
   style="fill:url(#_Linear1);fill-rule:nonzero;" />
    </g>
    <defs
   id="defs4">
        <linearGradient
   id="_Linear1"
   x1="0"
   y1="0"
   x2="1"
   y2="0"
   gradientUnits="userSpaceOnUse"
   gradientTransform="matrix(710.131,950.61,-950.61,710.131,-75.3439,-121.326)"><stop
     offset="0"
     style="stop-color:rgb(3,151,209);stop-opacity:1"
     id="stop1" /><stop
     offset="0.25"
     style="stop-color:rgb(0,127,194);stop-opacity:1"
     id="stop2" /><stop
     offset="0.5"
     style="stop-color:rgb(0,123,189);stop-opacity:1"
     id="stop3" /><stop
     offset="1"
     style="stop-color:rgb(18,59,114);stop-opacity:1"
     id="stop4" /></linearGradient>
    </defs>
</svg>
